<svg width="51" height="20" viewBox="0 0 51 20" fill="none" xmlns="http://www.w3.org/2000/svg">
<g clip-path="url(#clip0_849_114)">
<path d="M3.86377 16.3971H6.19002V16.9853H4.51803V17.9412H5.89924V18.603H4.51803V20H3.86377V16.3971Z" fill="#ED7024"/>
<path d="M8.15283 18.1618C8.15283 17.1324 8.87979 16.3235 9.97022 16.3235C10.988 16.3235 11.7876 17.0588 11.7876 18.1618C11.7876 19.2647 10.988 20 9.97022 20C8.87979 20 8.15283 19.2647 8.15283 18.1618ZM9.97022 19.3383C10.5518 19.3383 11.0606 18.8235 11.0606 18.1618C11.0606 17.5 10.6245 16.9853 9.97022 16.9853C9.31596 16.9853 8.87979 17.5 8.87979 18.1618C8.87979 18.8235 9.31596 19.3383 9.97022 19.3383Z" fill="#ED7024"/>
<path d="M13.9683 18.4559V16.3235H14.6952V18.3824C14.6952 18.8971 14.986 19.2647 15.4222 19.2647C15.8583 19.2647 16.1491 18.8971 16.1491 18.3824V16.3235H16.8761V18.4559C16.8761 19.4118 16.3672 20 15.4222 20C14.5498 20 13.9683 19.4853 13.9683 18.4559Z" fill="#ED7024"/>
<path d="M22.1832 16.3971V20H21.4562L19.9296 17.5736H19.8569V20H19.2026V16.3971H19.8569L21.4562 18.8236V16.3971H22.1832Z" fill="#ED7024"/>
<path d="M24.582 16.3971H25.7452C26.8356 16.3971 27.5625 17.1324 27.5625 18.2353C27.5625 19.2647 26.9083 20 25.7452 20H24.582V16.3971ZM25.7452 19.3383C26.4721 19.3383 26.9083 18.8236 26.9083 18.1618C26.9083 17.5 26.4721 16.9853 25.8179 16.9853H25.309V19.3383H25.7452Z" fill="#ED7024"/>
<path d="M31.7061 19.2647H30.3249L30.1068 20H29.3799L30.6884 16.3971H31.3427L32.6512 20H31.9242L31.7061 19.2647ZM31.4881 18.6765L30.9792 17.2794L30.4703 18.6765H31.4881Z" fill="#ED7024"/>
<path d="M35.1955 16.9853H34.2505V16.3971H36.8675V16.9853H35.9225V20H35.1955V16.9853Z" fill="#ED7024"/>
<path d="M39.7753 16.3971H39.0483V20H39.7753V16.3971Z" fill="#ED7024"/>
<path d="M42.0288 18.1618C42.0288 17.1324 42.7558 16.3235 43.8462 16.3235C44.8639 16.3235 45.6636 17.0588 45.6636 18.1618C45.6636 19.2647 44.8639 20 43.8462 20C42.7558 20 42.0288 19.2647 42.0288 18.1618ZM43.8462 19.3383C44.4278 19.3383 44.9366 18.8235 44.9366 18.1618C44.9366 17.5 44.5005 16.9853 43.8462 16.9853C43.1919 16.9853 42.7558 17.5 42.7558 18.1618C42.7558 18.8235 43.1919 19.3383 43.8462 19.3383Z" fill="#ED7024"/>
<path d="M50.8975 16.3971V20H50.1705L48.6439 17.5736V20H47.917V16.3971H48.6439L50.2432 18.8236V16.3971H50.8975Z" fill="#ED7024"/>
<path d="M14.6955 0.514709V4.4853C13.605 4.11765 12.5146 3.82353 11.3515 3.67647C11.1334 3.67647 10.9153 3.60295 10.6245 3.60295V2.35294C10.6245 1.17647 11.2788 0.588239 12.66 0.588239H14.6955V0.514709Z" fill="#ED7024"/>
<path d="M7.86202 2.35294V3.67647C6.48081 3.82353 5.17229 4.11765 3.86377 4.4853V0.514709H5.89924C7.20776 0.514709 7.86202 1.17647 7.86202 2.35294Z" fill="#ED7024"/>
<path d="M40.4294 1.91179C39.6298 1.02943 38.6847 0.588257 37.5943 0.588257H30.979V14.4853H33.0145C34.3957 14.4853 35.0499 13.8971 35.0499 12.7206V9.85296H37.0854C38.3939 9.85296 39.4117 9.41179 40.284 8.4559C41.0837 7.50002 41.5198 6.47061 41.5198 5.22061C41.5925 3.89708 41.2291 2.86767 40.4294 1.91179ZM36.2131 6.54414H35.0499V3.38237H36.2131C37.3762 3.38237 37.9578 3.89708 37.9578 5.00002C37.9578 6.02943 37.3762 6.54414 36.2131 6.54414Z" fill="#ED7024"/>
<path d="M23.2733 2.13235C23.1279 2.64705 23.2006 3.23529 23.346 3.82352C23.2006 3.82352 23.0552 3.82352 22.8371 3.82352C21.8194 3.82352 21.0197 4.19117 20.3655 4.85293C19.7112 5.5147 19.4204 6.39705 19.4204 7.42646C18.33 6.47058 17.0942 5.66176 15.7856 5.07352C16.0764 3.97058 16.658 3.0147 17.5303 2.20588C18.9115 0.882346 20.6562 0.220581 22.7644 0.220581C23.346 0.220581 23.9275 0.29411 24.5091 0.36764C23.9275 0.735287 23.4187 1.39705 23.2733 2.13235Z" fill="#ED7024"/>
<path d="M7.86202 11.3235V12.7206C7.86202 12.7941 7.86202 12.7941 7.86202 12.8677C7.86202 13.0147 7.86202 13.1618 7.78932 13.3088C7.71663 13.4559 7.71663 13.603 7.64393 13.75C7.35315 14.2647 6.77159 14.4853 5.89924 14.4853H3.86377V10.2941C5.17229 10.8824 6.48081 11.25 7.86202 11.3235Z" fill="#ED7024"/>
<path d="M42.4648 14.4853V0.514709H50.9702V2.20589C50.9702 3.30883 50.4613 3.82353 49.3709 3.82353H46.4631V5.80883H50.534V7.42647C50.534 8.52942 50.0252 9.04412 48.9347 9.04412H46.4631V11.1029H50.8975V12.7206C50.8975 13.8235 50.3886 14.3382 49.2982 14.3382H42.4648V14.4853Z" fill="#ED7024"/>
<path d="M29.9615 5.36765C29.598 4.04412 28.9437 3.01471 28.0714 1.98529C27.926 1.76471 27.7806 1.54412 27.7079 1.32353C27.5625 0.882353 27.8533 0.441176 28.0714 0C27.4171 0.367647 26.7629 0.588235 26.0359 0.808824C25.2363 1.02941 24.5093 1.54412 24.2912 2.35294C24.1458 2.86765 24.2912 3.45588 24.582 3.97059C25.0182 4.70588 25.5997 5.14706 25.9632 5.88235C26.254 6.61765 26.3267 7.42647 26.1813 8.16177C25.9632 9.11765 25.3817 9.92647 24.5093 10.3676C23.9278 10.6618 23.2008 10.8088 22.5465 10.8088C21.1653 10.8088 20.4384 10 19.566 9.04412C17.3852 6.69118 14.332 5.22059 11.2061 4.77941C8.00745 4.33824 4.73616 5.29412 1.75564 6.32353C1.39217 6.47059 1.02869 6.61765 0.665212 6.76471C0.665212 6.76471 0.592516 7.13235 3.42764 8.82353C6.26276 10.5147 8.66171 10.5147 12.0784 9.77941C13.4596 9.48529 14.6954 9.41176 15.7859 9.48529C16.4401 9.48529 16.949 9.55882 17.4579 9.70588C16.8763 9.63235 16.2947 9.63235 15.7859 9.63235C14.6227 9.70588 13.5323 10.1471 12.2238 10.6618C11.2787 11.0294 9.31597 12.5 8.58902 13.0882C8.58902 13.0882 10.3337 14.2647 12.2965 14.4853C14.332 14.7059 16.004 13.0147 17.1671 12.3529H17.2398C17.5306 12.2059 17.8213 12.0588 18.1121 11.9853C17.8213 12.1324 17.6033 12.3529 17.3125 12.5C16.8036 12.9412 16.2947 13.3824 15.9313 13.8971C15.7132 14.1912 15.4951 14.4118 15.3497 14.7059C15.3497 14.7059 16.7309 15.2941 18.1848 14.9265C18.7664 14.7794 19.3479 14.4853 19.7841 14.1912C20.3657 13.75 20.8745 13.2353 21.0926 12.9412C21.4561 12.5735 21.8196 12.2794 22.1831 11.9853C21.0926 12.9412 20.5111 13.9706 20.293 14.3382C20.293 14.3382 22.2558 14.7059 22.4738 14.7059C23.2735 14.7794 24.0004 14.6324 24.7274 14.4853C26.1813 14.1176 27.4898 13.2353 28.5076 12.0588C30.1069 10.0735 30.543 7.57353 29.9615 5.36765ZM26.0359 2.05882C25.8905 2.13235 25.7451 2.13235 25.5997 2.05882C25.5271 1.91176 25.5271 1.76471 25.5997 1.61765C25.7451 1.54412 25.8905 1.54412 26.0359 1.61765C26.1813 1.76471 26.1813 1.91176 26.0359 2.05882Z" fill="#15ADEC"/>
</g>
<defs>
<clipPath id="clip0_849_114">
<rect width="50.2326" height="20" fill="white" transform="translate(0.665039)"/>
</clipPath>
</defs>
</svg>
