<svg width="82" height="20" viewBox="0 0 82 20" fill="none" xmlns="http://www.w3.org/2000/svg">
<g clip-path="url(#clip0_849_136)">
<path d="M13.0098 4.55445V0.594055H13.5708L14.8249 2.60726C15.122 3.0693 15.353 3.49835 15.551 3.89439C15.518 3.36633 15.485 2.87128 15.485 2.27722V0.627058H15.9801V4.58745H15.452L14.1979 2.57425C13.9339 2.14521 13.6698 1.68316 13.4718 1.25412H13.4388C13.4718 1.74917 13.4718 2.24422 13.4718 2.90429V4.58745H13.0098V4.55445Z" fill="#01479D"/>
<path d="M16.9373 0.396057H17.4654V2.17824C17.5314 2.04622 17.6634 1.91421 17.8284 1.8152C17.9934 1.71619 18.1584 1.68319 18.3564 1.68319C18.7525 1.68319 19.3465 1.91421 19.3465 2.90431V4.58748H18.8185V2.93731C18.8185 2.47527 18.6535 2.07923 18.1584 2.07923C17.8284 2.07923 17.5644 2.31025 17.4654 2.60728C17.4323 2.67328 17.4323 2.73929 17.4323 2.8383V4.55447H16.9043V0.396057H16.9373Z" fill="#01479D"/>
<path d="M21.7558 4.55443L21.7228 4.1914H21.6898C21.5248 4.42242 21.2278 4.62044 20.8317 4.62044C20.2707 4.62044 19.9736 4.2244 19.9736 3.79536C19.9736 3.10229 20.6007 2.73925 21.6898 2.73925V2.67325C21.6898 2.44222 21.6238 2.01318 21.0297 2.01318C20.7657 2.01318 20.5017 2.07919 20.3037 2.2112L20.1717 1.88117C20.4027 1.74915 20.7327 1.65014 21.0957 1.65014C21.9538 1.65014 22.1849 2.2442 22.1849 2.80526V3.86136C22.1849 4.09239 22.1849 4.35641 22.2179 4.55443H21.7558ZM20.4357 1.2211C20.4357 0.825062 20.5677 0.594038 20.8317 0.594038C20.9637 0.594038 21.0627 0.660045 21.1948 0.726052C21.2938 0.792058 21.3598 0.825062 21.4258 0.825062C21.5248 0.825062 21.5578 0.759055 21.5908 0.561035H21.8548C21.8548 0.957075 21.7228 1.15509 21.4588 1.15509C21.3268 1.15509 21.2278 1.08909 21.0957 1.02308C20.9637 0.957075 20.8977 0.924071 20.8317 0.924071C20.7327 0.924071 20.6997 1.02308 20.6667 1.1881H20.4357V1.2211ZM21.6898 3.10229C21.1287 3.10229 20.4687 3.2013 20.4687 3.72935C20.4687 4.05938 20.6997 4.2244 20.9637 4.2244C21.3268 4.2244 21.5578 3.99338 21.6568 3.76235C21.6898 3.69635 21.6898 3.66335 21.6898 3.59734V3.10229Z" fill="#01479D"/>
<path d="M23.0096 2.47523C23.0096 2.1782 23.0096 1.94718 22.9766 1.71615H23.4386L23.4716 2.1782C23.6366 1.91417 23.9667 1.65015 24.4287 1.65015C24.8247 1.65015 25.4188 1.88117 25.4188 2.87127V4.55444H24.8908V2.90427C24.8908 2.44223 24.7257 2.07919 24.2307 2.07919C23.9007 2.07919 23.6366 2.31021 23.5376 2.60724C23.5046 2.67325 23.5046 2.77226 23.5046 2.83827V4.55444H23.0096V2.47523Z" fill="#01479D"/>
<path d="M27.531 0.396057H28.0591V2.17824C28.1251 2.04622 28.2571 1.91421 28.4221 1.8152C28.5872 1.71619 28.7522 1.65018 28.9502 1.65018C29.3462 1.65018 29.9403 1.88121 29.9403 2.8713V4.55447H29.4122V2.90431C29.4122 2.44226 29.2472 2.04622 28.7522 2.04622C28.4221 2.04622 28.1581 2.27725 28.0591 2.57428C28.0261 2.64028 28.0261 2.70629 28.0261 2.8053V4.52147H27.498V0.396057H27.531Z" fill="#01479D"/>
<path d="M32.3496 4.55446L32.3166 4.19143H32.2836C32.1185 4.42245 31.8215 4.62047 31.4255 4.62047C30.8644 4.62047 30.5674 4.22443 30.5674 3.79539C30.5674 3.10232 31.1944 2.73928 32.2836 2.73928V2.67327C32.2836 2.44225 32.2175 2.01321 31.6235 2.01321C31.3595 2.01321 31.0954 2.07921 30.8974 2.21123L30.7654 1.88119C30.9964 1.74918 31.3595 1.65017 31.6895 1.65017C32.5476 1.65017 32.7786 2.24423 32.7786 2.80529V3.86139C32.7786 4.09242 32.7786 4.35644 32.8116 4.55446H32.3496ZM31.4915 0.495056L31.9865 1.32014H31.6235L30.9304 0.495056H31.4915ZM32.2836 3.10232C31.7225 3.10232 31.0624 3.20133 31.0624 3.72938C31.0624 4.05941 31.2935 4.22443 31.5575 4.22443C31.9205 4.22443 32.1515 3.99341 32.2506 3.76238C32.2836 3.69638 32.2836 3.66337 32.2836 3.59737V3.10232Z" fill="#01479D"/>
<path d="M33.6038 2.47523C33.6038 2.1782 33.6038 1.94718 33.5708 1.71615H34.0328L34.0659 2.1782C34.2309 1.91417 34.5609 1.65015 35.0229 1.65015C35.419 1.65015 36.013 1.88117 36.013 2.87127V4.55444H35.485V2.90427C35.485 2.44223 35.32 2.07919 34.8249 2.07919C34.4949 2.07919 34.2309 2.31021 34.1319 2.60724C34.0989 2.67325 34.0989 2.77226 34.0989 2.83827V4.55444H33.5708V2.47523H33.6038Z" fill="#01479D"/>
<path d="M39.3463 1.7162C39.3463 1.91422 39.3133 2.14524 39.3133 2.50828V4.15844C39.3133 4.81851 39.1813 5.21455 38.9173 5.44557C38.6532 5.7096 38.2572 5.7756 37.8942 5.7756C37.5641 5.7756 37.1681 5.7096 36.9371 5.54458L37.0691 5.14854C37.2671 5.28055 37.5641 5.37956 37.8942 5.37956C38.4222 5.37956 38.8183 5.11554 38.8183 4.38946V4.05943C38.6532 4.32346 38.3562 4.52148 37.9272 4.52148C37.2341 4.52148 36.7061 3.92742 36.7061 3.13534C36.7061 2.17824 37.3331 1.61719 37.9932 1.61719C38.4882 1.61719 38.7523 1.88121 38.8843 2.11224L38.9173 1.68319H39.3463V1.7162ZM38.7853 2.83831C38.7853 2.7393 38.7853 2.67329 38.7523 2.60729C38.6532 2.31026 38.3892 2.04623 38.0262 2.04623C37.5311 2.04623 37.1681 2.47527 37.1681 3.13534C37.1681 3.6964 37.4651 4.15844 37.9932 4.15844C38.3232 4.15844 38.5872 3.96042 38.7193 3.63039C38.7523 3.53138 38.7523 3.43237 38.7523 3.36636V2.83831H38.7853Z" fill="#01479D"/>
<path d="M41.4256 2.47523C41.4256 2.1782 41.4256 1.94718 41.3926 1.71615H41.8546L41.8876 2.1782H41.9206C42.0856 1.91417 42.3497 1.65015 42.8117 1.65015C43.2078 1.65015 43.5048 1.88117 43.6038 2.2112C43.7028 2.04619 43.8018 1.91417 43.9338 1.84817C44.0988 1.71615 44.2969 1.65015 44.5609 1.65015C44.9239 1.65015 45.485 1.88117 45.485 2.87127V4.55444H44.9899V2.93728C44.9899 2.37622 44.7919 2.04619 44.3629 2.04619C44.0658 2.04619 43.8348 2.27721 43.7358 2.50823C43.7028 2.57424 43.7028 2.67325 43.7028 2.77226V4.52143H43.2078V2.83827C43.2078 2.37622 43.0097 2.04619 42.6137 2.04619C42.2837 2.04619 42.0526 2.31021 41.9866 2.57424C41.9536 2.64025 41.9536 2.73926 41.9536 2.83827V4.55444H41.4586V2.47523H41.4256Z" fill="#01479D"/>
<path d="M46.6071 3.23432C46.6071 3.92739 47.0691 4.22442 47.5972 4.22442C47.9602 4.22442 48.1912 4.15841 48.3892 4.09241L48.4883 4.45544C48.2902 4.52145 47.9932 4.62046 47.5312 4.62046C46.6401 4.62046 46.145 4.0594 46.145 3.20132C46.145 2.34323 46.6401 1.68317 47.4652 1.68317C48.3892 1.68317 48.6533 2.50825 48.6533 3.0363C48.6533 3.13531 48.6533 3.23432 48.6203 3.26732H46.6071V3.23432ZM48.1252 2.87129C48.1252 2.54125 47.9932 2.0462 47.3991 2.0462C46.8711 2.0462 46.6401 2.54125 46.6071 2.87129H48.1252Z" fill="#01479D"/>
<path d="M49.2472 2.47523C49.2472 2.1782 49.2472 1.94718 49.2142 1.71615H49.6762L49.7092 2.1782C49.8412 1.91417 50.1712 1.65015 50.6333 1.65015C51.0293 1.65015 51.6234 1.88117 51.6234 2.87127V4.55444H51.0953V2.90427C51.0953 2.44223 50.9303 2.07919 50.4353 2.07919C50.1052 2.07919 49.8412 2.31021 49.7422 2.60724C49.7092 2.67325 49.7092 2.77226 49.7092 2.83827V4.55444H49.1812V2.47523H49.2472Z" fill="#01479D"/>
<path d="M56.3431 3.10231C56.3431 4.15842 55.617 4.62046 54.9239 4.62046C54.1649 4.62046 53.5708 4.05941 53.5708 3.16832C53.5708 2.21122 54.1979 1.65017 54.9899 1.65017C55.782 1.65017 56.3431 2.24422 56.3431 3.10231ZM54.0659 3.13531C54.0659 3.76238 54.4289 4.22442 54.9239 4.22442C55.419 4.22442 55.782 3.76238 55.782 3.13531C55.782 2.64026 55.551 2.0462 54.9239 2.0462C54.2969 2.0462 54.0659 2.60726 54.0659 3.13531ZM55.155 0.49505L55.683 1.32013H55.287L54.9899 0.759076L54.6599 1.32013H54.2969L54.7919 0.49505H55.155ZM56.3761 0L55.782 0.792079H55.485L55.881 0H56.3761Z" fill="#01479D"/>
<path d="M57.0032 2.47523C57.0032 2.1782 57.0032 1.94718 56.9702 1.71615H57.4323L57.4653 2.1782C57.5973 1.91417 57.9273 1.65015 58.3894 1.65015C58.7854 1.65015 59.3795 1.88117 59.3795 2.87127V4.55444H58.8514V2.90427C58.8514 2.44223 58.6864 2.07919 58.1913 2.07919C57.8613 2.07919 57.5973 2.31021 57.4983 2.60724C57.4653 2.67325 57.4653 2.77226 57.4653 2.83827V4.55444H57.0032V2.47523Z" fill="#01479D"/>
<path d="M62.7125 1.7162C62.7125 1.91422 62.6795 2.14524 62.6795 2.50828V4.15844C62.6795 4.81851 62.5475 5.21455 62.2835 5.44557C62.0195 5.7096 61.6234 5.7756 61.2604 5.7756C60.9303 5.7756 60.5343 5.7096 60.3033 5.54458L60.4353 5.14854C60.6333 5.28055 60.9303 5.37956 61.2604 5.37956C61.7884 5.37956 62.1845 5.11554 62.1845 4.38946V4.05943C62.0195 4.32346 61.7224 4.52148 61.2934 4.52148C60.6003 4.52148 60.0723 3.92742 60.0723 3.13534C60.0723 2.17824 60.6993 1.61719 61.3594 1.61719C61.8544 1.61719 62.1185 1.88121 62.2505 2.11224L62.2835 1.68319H62.7125V1.7162ZM62.1845 2.83831C62.1845 2.7393 62.1845 2.67329 62.1515 2.60729C62.0525 2.31026 61.7884 2.04623 61.4254 2.04623C60.9303 2.04623 60.5673 2.47527 60.5673 3.13534C60.5673 3.6964 60.8643 4.15844 61.3924 4.15844C61.7224 4.15844 61.9865 3.96042 62.1185 3.63039C62.1515 3.53138 62.1515 3.43237 62.1515 3.36636V2.83831H62.1845Z" fill="#01479D"/>
<path d="M64.9898 1.71619L65.5508 3.30034C65.6498 3.56437 65.7158 3.79539 65.7818 4.02642H65.8148C65.8809 3.79539 65.9469 3.56437 66.0459 3.30034L66.6069 1.71619H67.135L66.0129 4.55447H65.5178L64.4287 1.71619H64.9898Z" fill="#01479D"/>
<path d="M68.1915 0.924088C68.1915 1.0891 68.0595 1.25412 67.8615 1.25412C67.6635 1.25412 67.5645 1.12211 67.5645 0.924088C67.5645 0.726068 67.6965 0.594055 67.8945 0.594055C68.0595 0.594055 68.1915 0.726068 68.1915 0.924088ZM67.5975 4.55445V1.71617H68.1255V4.55445H67.5975Z" fill="#01479D"/>
<path d="M70.1713 4.02638C70.3363 4.12539 70.6003 4.2244 70.8643 4.2244C71.2274 4.2244 71.4254 4.02638 71.4254 3.79536C71.4254 3.56434 71.2934 3.39932 70.8973 3.26731C70.4023 3.06929 70.1383 2.80526 70.1383 2.47523C70.1383 2.01318 70.5013 1.65015 71.1284 1.65015C71.4254 1.65015 71.6564 1.71615 71.8214 1.81516L71.6894 2.1782C71.5904 2.11219 71.3594 2.01318 71.0954 2.01318C70.7983 2.01318 70.6333 2.1782 70.6333 2.40922C70.6333 2.64025 70.7983 2.73926 71.1614 2.90427C71.6564 3.10229 71.9204 3.33331 71.9204 3.76236C71.9204 4.25741 71.5244 4.62044 70.8643 4.62044C70.5673 4.62044 70.2703 4.55444 70.0723 4.42242L70.1713 4.02638Z" fill="#01479D"/>
<path d="M73.1417 0.924088C73.1417 1.0891 73.0097 1.25412 72.8117 1.25412C72.6137 1.25412 72.5146 1.12211 72.5146 0.924088C72.5146 0.726068 72.6467 0.594055 72.8447 0.594055C73.0097 0.594055 73.1417 0.726068 73.1417 0.924088ZM72.5477 4.55445V1.71617H73.0757V4.55445H72.5477Z" fill="#01479D"/>
<path d="M73.9337 2.47523C73.9337 2.1782 73.9337 1.94718 73.9007 1.71615H74.3627L74.3957 2.1782C74.5277 1.91417 74.8578 1.65015 75.3198 1.65015C75.7159 1.65015 76.3099 1.88117 76.3099 2.87127V4.55444H75.7819V2.90427C75.7819 2.44223 75.6168 2.07919 75.1218 2.07919C74.7918 2.07919 74.5277 2.31021 74.4287 2.60724C74.3957 2.67325 74.3957 2.77226 74.3957 2.83827V4.55444H73.8677V2.47523H73.9337Z" fill="#01479D"/>
<path d="M77.2012 0.396057H77.7292V2.17824C77.7952 2.04622 77.9272 1.91421 78.0923 1.8152C78.2573 1.71619 78.4223 1.68319 78.6203 1.68319C79.0164 1.68319 79.6104 1.91421 79.6104 2.90431V4.58748H79.1154V2.93731C79.1154 2.47527 78.9503 2.07923 78.4553 2.07923C78.1253 2.07923 77.8612 2.31025 77.7622 2.60728C77.7292 2.67328 77.7292 2.73929 77.7292 2.8383V4.55447H77.2012V0.396057Z" fill="#01479D"/>
<path d="M37.4983 15.8416C37.4323 15.8086 37.3993 15.7756 37.3332 15.7756C37.1352 15.6766 36.9042 15.5775 36.7062 15.4785C36.3101 15.2805 36.3432 14.7195 36.6402 14.4884C36.8382 14.3564 37.0692 14.2244 37.2672 14.0594C37.3663 13.9934 37.4323 13.9604 37.5313 13.8944C37.4983 13.7624 37.3993 13.7624 37.3332 13.7294C36.8382 13.4323 36.5412 13.0363 36.4422 12.4752C36.2771 11.4191 36.5742 10.528 37.3332 9.80197C37.8943 9.27391 38.5544 9.00989 39.3134 9.00989C39.5775 9.00989 39.8745 9.04289 40.1385 9.1089C40.5346 9.20791 40.8316 9.43893 41.0956 9.76896C41.1286 9.80197 41.1616 9.86797 41.2276 9.93398C41.2936 9.86797 41.3266 9.83497 41.3927 9.76896C41.6237 9.53794 41.8547 9.30692 42.1187 9.1419C42.4488 8.94388 42.7788 8.87787 43.2078 8.94388C43.1748 9.07589 43.1748 9.1749 43.1418 9.30692C43.0758 9.60395 43.0758 9.60395 42.7788 9.63695C42.3167 9.66995 41.9207 9.86797 41.5577 10.132C41.4257 10.231 41.3927 10.297 41.4257 10.462C41.7227 11.8152 41.0956 13.2343 39.8085 13.8284C39.3134 14.0594 38.8184 14.1254 38.2903 14.0594C38.1253 14.0264 37.9933 14.0594 37.8613 14.1584C37.7293 14.2574 37.5643 14.3564 37.4323 14.4884C37.2012 14.6865 37.2342 14.9175 37.4983 15.0825C37.6303 15.1485 37.7623 15.2145 37.8943 15.2805C38.5214 15.5115 39.1154 15.7426 39.7425 15.9736C40.1385 16.1056 40.5016 16.2706 40.8646 16.5016C41.1946 16.7327 41.4917 16.9967 41.5577 17.4257C41.6237 17.8878 41.4917 18.3498 41.1946 18.7129C40.8646 19.1419 40.4356 19.4389 39.9405 19.67C39.2474 19.967 38.5544 20.099 37.7953 20.066C37.1682 20.066 36.5412 19.967 35.9471 19.703C35.5841 19.5379 35.254 19.3399 35.023 19.0099C34.594 18.4818 34.66 17.6898 35.056 17.2607C35.287 16.9967 35.5841 16.7987 35.8811 16.6337C36.3431 16.4026 36.8052 16.2046 37.3002 16.0726C37.3663 16.0396 37.4653 16.0066 37.5313 15.9736C37.4983 15.8746 37.4983 15.8416 37.4983 15.8416ZM38.1253 19.4389C38.2573 19.4389 38.4554 19.4059 38.6534 19.4059C39.1814 19.3399 39.6765 19.1749 40.1055 18.8449C40.3035 18.6799 40.5016 18.4818 40.6006 18.2508C40.8316 17.7228 40.7656 17.2277 40.2045 16.9307C40.0395 16.8317 39.8415 16.7327 39.6765 16.6667C39.3134 16.5016 38.9504 16.3696 38.5874 16.2376C37.9603 16.0066 38.1913 16.0066 37.5643 16.2376C37.1682 16.4026 36.7392 16.5676 36.3762 16.8317C36.1451 16.9967 35.9141 17.1617 35.7821 17.3927C35.4851 17.9208 35.5511 18.4488 36.0461 18.8119C36.1451 18.9109 36.2771 18.9769 36.4092 19.0429C36.9042 19.3399 37.4653 19.4059 38.1253 19.4389ZM37.3332 12.0462C37.3332 12.1782 37.3663 12.4752 37.4653 12.7393C37.6303 13.1353 37.8943 13.3663 38.2903 13.4653C38.8184 13.5973 39.2804 13.4653 39.6765 13.1353C39.9735 12.9043 40.1715 12.5742 40.3365 12.2442C40.5676 11.6832 40.6666 11.0891 40.5346 10.462C40.3696 9.73596 39.7425 9.37292 39.0164 9.50494C38.5874 9.57094 38.2573 9.80197 37.9933 10.099C37.5313 10.627 37.3332 11.2541 37.3332 12.0462Z" fill="#01479D"/>
<path d="M55.4851 10.132C55.5181 10.066 55.5841 10.033 55.6171 9.96697C56.0131 9.47192 56.5082 9.14188 57.1352 9.00987C57.5313 8.94386 57.9603 8.94386 58.3564 9.04287C58.8844 9.17489 59.2805 9.47192 59.5445 9.93396C59.6105 10.033 59.6435 10.099 59.7095 10.231C59.7755 10.165 59.8085 10.132 59.8415 10.066C60.1716 9.70294 60.5016 9.37291 60.9636 9.20789C61.7227 8.91086 62.4818 8.91086 63.2079 9.24089C63.8679 9.57093 64.198 10.132 64.264 10.8581C64.297 11.1881 64.297 11.4851 64.297 11.8151C64.297 13.0693 64.297 14.3234 64.297 15.5445C64.297 15.5775 64.297 15.6435 64.297 15.6765C64.297 15.8085 64.264 15.8416 64.1319 15.8416C63.9669 15.8416 63.7689 15.8416 63.6039 15.8416C63.5049 15.8416 63.4719 15.7755 63.4719 15.6765C63.4719 15.6105 63.4719 15.5445 63.4719 15.4785C63.4719 14.2244 63.4719 12.9703 63.4719 11.7491C63.4719 11.4851 63.4719 11.1881 63.4389 10.9241C63.4059 10.462 63.1418 10.132 62.7788 9.90096C62.0857 9.50492 61.4257 9.57093 60.7656 9.96697C60.4356 10.165 60.1715 10.429 59.9405 10.759C59.9075 10.8251 59.8745 10.9241 59.8745 10.9901C59.8745 12.5082 59.8745 14.0264 59.8745 15.5115C59.8745 15.8416 59.8745 15.8416 59.5445 15.8416C59.4455 15.8416 59.3135 15.8416 59.2145 15.8416C59.0824 15.8416 59.0494 15.8085 59.0494 15.6765C59.0494 15.6105 59.0494 15.5775 59.0494 15.5115C59.0494 14.1254 59.0494 12.7062 59.0494 11.3201C59.0494 11.0891 59.0164 10.8911 58.9834 10.66C58.8844 10.231 58.6204 9.93396 58.2244 9.80195C57.5313 9.53792 56.8712 9.63693 56.2772 10.066C56.0461 10.231 55.8481 10.462 55.6171 10.66C55.5181 10.759 55.4851 10.8911 55.4851 11.0561C55.4851 12.5412 55.4851 14.0264 55.4851 15.5445C55.4851 15.8416 55.5181 15.8746 55.1881 15.8416C55.056 15.8416 54.957 15.8416 54.825 15.8416C54.693 15.8416 54.693 15.8085 54.66 15.6765C54.66 15.6105 54.66 15.5445 54.66 15.4785C54.66 13.9934 54.66 12.5082 54.66 11.0561C54.66 10.8251 54.66 10.561 54.627 10.33C54.594 9.96697 54.495 9.60393 54.231 9.3069C54.462 9.20789 54.66 9.10888 54.858 9.00987C54.924 8.97687 54.957 9.04287 55.023 9.07588C55.1881 9.24089 55.3201 9.47192 55.3861 9.70294C55.4191 9.83495 55.4521 9.99997 55.4851 10.132C55.4851 10.132 55.4521 10.132 55.4851 10.132Z" fill="#01479D"/>
<path d="M1.82155 11.1221C1.82155 11.2211 1.78855 11.3201 1.78855 11.4191C1.78855 12.5412 1.78855 13.6633 1.78855 14.7854C1.78855 14.8185 1.78855 14.8515 1.78855 14.8845C1.78855 15.0495 1.82155 15.0495 1.98657 15.0495C2.05258 15.0495 2.11858 15.0495 2.18459 15.0495C3.63673 15.0495 5.08888 15.0495 6.50802 15.0495C6.57403 15.0495 6.67304 15.0495 6.77205 15.0495C6.77205 15.1485 6.73905 15.2475 6.73905 15.3465C6.70604 15.4785 6.70604 15.5775 6.67304 15.7095C6.67304 15.7755 6.60703 15.8086 6.54103 15.8086C6.47502 15.8086 6.44202 15.8086 6.37601 15.8086C4.65984 15.8086 2.94367 15.8086 1.22749 15.8086C0.897461 15.8416 0.897461 15.8416 0.897461 15.5445C0.897461 12.5082 0.897461 9.50492 0.897461 6.46862V6.43561C0.897461 6.20459 0.897461 6.20459 1.12848 6.20459C2.81165 6.20459 4.52782 6.20459 6.21099 6.20459C6.244 6.20459 6.277 6.20459 6.277 6.20459C6.40901 6.20459 6.44202 6.23759 6.44202 6.3366C6.44202 6.46862 6.44202 6.63363 6.44202 6.76565C6.44202 6.86466 6.40901 6.93066 6.31 6.93066C6.244 6.93066 6.17799 6.93066 6.11198 6.93066C4.75885 6.93066 3.40571 6.93066 2.05258 6.93066C1.75555 6.93066 1.75555 6.93066 1.75555 7.22769C1.75555 8.15178 1.75555 9.10888 1.75555 10.033C1.75555 10.363 1.75555 10.363 2.08558 10.363C3.17469 10.363 4.2638 10.363 5.35291 10.363C5.61693 10.363 5.61693 10.363 5.61693 10.627C5.61693 10.726 5.61693 10.8581 5.61693 10.9571C5.61693 11.0231 5.58393 11.0891 5.48492 11.0891C5.41891 11.0891 5.35291 11.0891 5.2869 11.0891C4.19779 11.0891 3.14169 11.0891 2.05258 11.0891C2.01957 11.0891 1.92056 11.1221 1.82155 11.1221Z" fill="#01479D"/>
<path d="M32.0855 8.97687C33.7687 8.97687 35.1548 10.132 35.3858 11.9142C35.4848 12.6732 35.4188 13.3993 35.0888 14.0924C34.5937 15.1815 33.7687 15.8086 32.5805 15.9736C31.9205 16.0726 31.2604 16.0066 30.6334 15.7425C29.7423 15.3465 29.1482 14.7194 28.8512 13.7953C28.5211 12.7062 28.5541 11.6501 29.1152 10.66C29.6103 9.76895 30.4023 9.20789 31.4254 9.04287C31.6895 9.00987 31.8875 9.00987 32.0855 8.97687ZM34.5607 12.6402C34.5607 12.5082 34.5607 12.3432 34.5607 12.2112C34.5277 12.0132 34.4947 11.8152 34.4617 11.6501C34.1317 10.462 33.1086 9.57093 31.6895 9.73594C30.7654 9.83495 30.1383 10.33 29.8083 11.1881C29.4782 12.0462 29.5112 12.8713 29.8083 13.7293C30.0063 14.2244 30.3033 14.6534 30.7324 14.9505C31.8215 15.7095 33.5046 15.5445 34.2307 14.1914C34.4947 13.6963 34.5937 13.1683 34.5607 12.6402Z" fill="#01479D"/>
<path d="M43.5379 12.1782C43.5379 12.4092 43.5379 12.6072 43.5379 12.8053C43.6039 13.5313 43.8349 14.1584 44.3629 14.6534C44.759 15.0495 45.254 15.2475 45.8151 15.3135C46.6402 15.4125 47.3332 15.1485 47.9603 14.6534C47.9933 14.6204 48.0593 14.5874 48.0923 14.5544C48.2243 14.6864 48.3563 14.8515 48.4884 15.0165C48.4554 15.0825 48.4224 15.1155 48.3563 15.1485C47.8283 15.6435 47.2012 15.9406 46.4752 16.0396C45.8481 16.1386 45.254 16.0726 44.66 15.8416C43.7359 15.4785 43.1418 14.8185 42.8118 13.9274C42.4488 12.8053 42.4818 11.6831 43.0758 10.627C43.5379 9.76895 44.2969 9.2409 45.254 9.07588C45.8151 8.97687 46.3431 9.00987 46.8712 9.2409C47.6303 9.53793 48.1253 10.132 48.3563 10.8911C48.4224 11.1221 48.4554 11.3861 48.4884 11.6171C48.5214 11.7491 48.4554 11.8482 48.3893 11.9472C48.2573 12.1452 48.0923 12.2112 47.8613 12.2112C46.5082 12.2112 45.155 12.2112 43.8019 12.2112C43.7689 12.1452 43.6699 12.1452 43.5379 12.1782ZM47.7953 11.5511C47.7623 11.0891 47.6303 10.693 47.3332 10.363C46.7062 9.57093 45.4851 9.43892 44.66 9.93397C44.0989 10.264 43.8019 10.7921 43.6039 11.4191C43.6039 11.4521 43.6039 11.5181 43.6039 11.5511C43.7689 11.6171 47.5643 11.6171 47.7953 11.5511Z" fill="#01479D"/>
<path d="M19.0164 12.1782C18.9504 13.3003 19.2144 14.2904 20.2045 14.9175C21.3926 15.6765 22.5477 15.4125 23.6368 14.5544C23.7688 14.6864 23.9008 14.8515 24.0329 14.9835C23.9999 15.0165 23.9669 15.0825 23.9339 15.1155C23.3728 15.6435 22.7457 15.9406 21.9867 16.0396C21.1946 16.1386 20.4685 16.0396 19.7754 15.6435C19.0164 15.1815 18.5213 14.5214 18.2903 13.6633C18.0263 12.6402 18.0923 11.6171 18.5873 10.693C19.0494 9.80195 19.8084 9.24089 20.7985 9.07587C21.4256 8.97686 22.0527 9.04287 22.6467 9.3399C23.2738 9.66993 23.6698 10.198 23.8678 10.8581C23.9338 11.1221 23.9669 11.3861 23.9999 11.6171C24.0329 11.7161 23.9669 11.8151 23.9008 11.9142C23.8348 11.9802 23.8018 12.0132 23.7688 12.0792C23.7028 12.1452 23.6368 12.1782 23.5708 12.1782C23.5048 12.1782 23.4388 12.1782 23.3728 12.1782C22.0197 12.1782 20.6665 12.1782 19.3134 12.1782C19.2474 12.1452 19.1484 12.1452 19.0164 12.1782ZM19.0494 11.5841C19.1814 11.5841 19.2804 11.6171 19.3794 11.6171C20.5675 11.6171 21.7556 11.6171 22.9768 11.6171C23.0428 11.6171 23.0758 11.6171 23.1418 11.6171C23.2738 11.6171 23.3068 11.5841 23.2738 11.4521C23.1748 10.792 22.8777 10.231 22.2507 9.90096C21.7226 9.60393 21.1616 9.60393 20.5675 9.76894C19.8414 9.96696 19.4124 10.495 19.1814 11.1551C19.1484 11.2541 19.1154 11.3861 19.0494 11.5841Z" fill="#01479D"/>
<path d="M79.9405 15.4125C79.9405 15.6105 79.9075 15.7425 79.8415 15.9075C79.8415 15.9405 79.7425 15.9735 79.7095 15.9735C79.3795 16.0065 79.0824 16.0395 78.7854 15.9075C78.5874 15.8085 78.4224 15.6765 78.3233 15.4785C78.2903 15.4125 78.2573 15.3465 78.2243 15.2475C78.1583 15.2805 78.0923 15.3135 78.0593 15.3465C77.5973 15.6765 77.1022 15.9405 76.5412 16.0065C76.0131 16.0725 75.4851 16.0065 75.023 15.7095C74.561 15.3795 74.3299 14.9504 74.2969 14.3894C74.1979 13.3333 74.825 12.6072 75.5841 12.2772C76.0131 12.0791 76.4422 11.9801 76.9042 11.9141C77.2672 11.8481 77.5973 11.8151 77.9603 11.7821C77.9933 11.7821 78.0593 11.7491 78.0923 11.7491C78.1583 11.7491 78.2243 11.6831 78.2243 11.6171C78.2243 11.2871 78.2243 10.957 78.1583 10.66C78.0263 10.0659 77.6303 9.76892 77.0032 9.73591C76.4092 9.70291 75.8481 9.86793 75.287 10.0659C75.089 10.132 74.891 10.231 74.693 10.33C74.693 10.264 74.66 10.231 74.66 10.198C74.66 10.0659 74.66 9.93393 74.66 9.80192C74.66 9.70291 74.693 9.6369 74.759 9.6039C75.287 9.33988 75.8151 9.14186 76.4092 9.07585C76.8052 9.00984 77.2012 9.00984 77.5973 9.10885C77.7623 9.14186 77.9603 9.20786 78.0923 9.30687C78.6204 9.5709 78.9174 9.99994 78.9834 10.594C79.0164 10.858 79.0164 11.1221 79.0164 11.3861C79.0164 12.4092 79.0164 13.3993 79.0164 14.4224C79.0164 14.6204 79.0494 14.7854 79.0824 14.9834C79.1484 15.3135 79.3134 15.4455 79.6435 15.4455C79.7095 15.4125 79.8085 15.4125 79.9405 15.4125ZM78.1583 12.2772C78.0923 12.2772 78.0263 12.2772 77.9603 12.2772C77.7293 12.3102 77.4653 12.3432 77.2342 12.3762C76.8052 12.4752 76.3431 12.5742 75.9471 12.7722C75.353 13.0692 75.089 13.4983 75.089 14.1584C75.122 14.6534 75.353 15.0164 75.7821 15.2145C76.0791 15.3465 76.4092 15.3795 76.7392 15.3465C77.2012 15.2805 77.5973 15.0824 77.9603 14.8184C78.0923 14.7524 78.1253 14.6534 78.1253 14.4884C78.1253 13.8283 78.1253 13.1683 78.1253 12.4752C78.1583 12.4422 78.1583 12.3432 78.1583 12.2772Z" fill="#01479D"/>
<path d="M67.4653 9.30689C67.6964 9.20788 67.8944 9.10887 68.0594 9.00986C68.1254 8.97685 68.1584 9.00986 68.2244 9.07586C68.4224 9.27388 68.5544 9.53791 68.6204 9.80194C68.6535 9.90095 68.6865 10.033 68.7195 10.165C68.7855 10.099 68.8515 10.033 68.9175 9.99996C69.1485 9.80194 69.3795 9.57091 69.6436 9.4059C70.2046 9.04286 70.8317 8.94385 71.4917 9.00986C72.0858 9.07586 72.5808 9.33989 72.9439 9.80194C73.2409 10.198 73.4059 10.66 73.4059 11.1221C73.4389 11.7821 73.4059 12.4092 73.4059 13.0693C73.4059 13.8943 73.4059 14.6864 73.4059 15.5115C73.4059 15.5775 73.4059 15.6435 73.4059 15.7095C73.4059 15.7755 73.3729 15.8085 73.3069 15.8415C73.1089 15.8415 72.9109 15.8415 72.7129 15.8415C72.6799 15.8415 72.6138 15.7755 72.6138 15.7425C72.5808 15.6765 72.6138 15.6105 72.6138 15.5775C72.6138 14.2574 72.6138 12.9703 72.6138 11.6501C72.6138 11.4191 72.6139 11.1881 72.5478 10.9901C72.4158 10.297 71.9538 9.90095 71.2937 9.73593C70.6667 9.60392 70.0726 9.76893 69.5445 10.132C69.3465 10.264 69.1485 10.462 68.9505 10.627C68.8185 10.726 68.7855 10.891 68.7855 11.0561C68.7855 12.5412 68.7855 14.0264 68.7855 15.5115C68.7855 15.8745 68.8185 15.8415 68.4554 15.8415C68.3564 15.8415 68.2244 15.8415 68.1254 15.8415C68.0264 15.8415 67.9934 15.8085 67.9934 15.7095C67.9934 15.6435 67.9934 15.5775 67.9934 15.5115C67.9934 14.0264 67.9934 12.5412 67.9934 11.0891C67.9934 10.792 67.9604 10.495 67.9274 10.231C67.8284 9.90095 67.6964 9.60392 67.4653 9.30689Z" fill="#01479D"/>
<path d="M8.19134 10.165C8.29035 10.099 8.32335 10.033 8.38936 9.96695C8.68639 9.66992 9.01642 9.37289 9.41246 9.20787C9.8745 9.00985 10.3366 8.91084 10.8646 8.97685C11.1616 9.00985 11.4587 9.07586 11.7227 9.20787C12.3498 9.53791 12.7128 10.066 12.8448 10.726C12.8778 10.957 12.9108 11.2211 12.9108 11.4851C12.9108 12.8382 12.9108 14.1914 12.9108 15.5445C12.9108 15.5775 12.9108 15.6435 12.9108 15.6765C12.9108 15.7755 12.8448 15.8085 12.7788 15.8085C12.6138 15.8085 12.4158 15.8085 12.2507 15.8085C12.1517 15.8085 12.1187 15.7755 12.1187 15.6765C12.1187 15.6105 12.1187 15.5445 12.1187 15.4785C12.1187 14.2574 12.1187 13.0363 12.1187 11.7821C12.1187 11.5181 12.0857 11.2211 12.0527 10.957C11.9537 10.198 11.3267 9.76893 10.7656 9.66992C10.0395 9.53791 9.37946 9.76893 8.8184 10.198C8.68639 10.33 8.55437 10.462 8.38936 10.594C8.25734 10.693 8.22434 10.825 8.22434 10.9901C8.22434 11.0561 8.22434 11.1221 8.22434 11.1881C8.22434 12.6072 8.22434 14.0594 8.22434 15.4785C8.22434 15.5445 8.22434 15.6105 8.22434 15.6765C8.22434 15.7425 8.19134 15.8085 8.09233 15.8085C7.89431 15.8085 7.69629 15.8085 7.49827 15.8085C7.43226 15.8085 7.39926 15.7755 7.39926 15.6765C7.39926 15.6105 7.39926 15.5775 7.39926 15.5115C7.39926 13.9934 7.39926 12.4752 7.39926 10.924C7.39926 10.66 7.39926 10.429 7.36625 10.165C7.33325 9.83494 7.23424 9.5049 6.97021 9.24088C7.16823 9.10886 7.39926 9.00985 7.59728 8.94385C7.63028 8.94385 7.69629 8.97685 7.76229 9.00985C7.99332 9.24088 8.09233 9.5049 8.15833 9.83494C8.15833 9.99995 8.15833 10.066 8.19134 10.165Z" fill="#01479D"/>
<path d="M17.828 15.0825C17.861 15.2145 17.894 15.3465 17.927 15.4785C17.96 15.6105 17.927 15.6765 17.795 15.7095C17.4979 15.8085 17.2339 15.9075 16.9369 15.9405C16.5739 16.0066 16.1778 16.0066 15.7818 15.9075C15.1217 15.7425 14.7587 15.3135 14.6927 14.6204C14.6597 14.2904 14.6597 13.9604 14.6597 13.6303C14.6597 12.4422 14.6597 11.2541 14.6597 10.099C14.6597 9.99996 14.6597 9.93395 14.6597 9.83494C14.5607 9.83494 14.4946 9.83494 14.4286 9.83494C14.0986 9.83494 13.7356 9.83494 13.4055 9.83494C13.2405 9.83494 13.2405 9.83494 13.2075 9.63692C13.2075 9.27388 13.2075 9.30689 13.5376 9.27388C13.7356 9.27388 13.9666 9.24088 14.1646 9.24088C14.5277 9.20788 14.7587 9.00986 14.8577 8.64682C14.9237 8.34979 14.9897 8.01976 15.0227 7.72273C15.0557 7.62372 15.0557 7.4917 15.0557 7.39269V7.35969C15.1547 7.19467 15.2867 7.29368 15.4187 7.26068C15.5178 7.26068 15.5508 7.29368 15.5508 7.39269C15.5508 7.4587 15.5508 7.55771 15.5508 7.62372C15.5178 8.05276 15.5178 8.4818 15.4847 8.91085C15.4847 8.91085 15.4847 8.91085 15.4847 8.94385C15.4517 9.20788 15.4847 9.20788 15.7488 9.20788C16.2108 9.20788 16.7059 9.20788 17.1679 9.20788C17.3989 9.20788 17.3989 9.20788 17.3989 9.4389C17.3989 9.50491 17.3989 9.57091 17.3989 9.63692C17.3989 9.80194 17.3659 9.83494 17.2009 9.83494C17.1679 9.83494 17.1019 9.83494 17.0689 9.83494C16.6069 9.83494 16.1448 9.83494 15.6828 9.83494C15.4847 9.83494 15.4517 9.83494 15.4517 10.066C15.4517 11.3531 15.4517 12.6732 15.4517 13.9604C15.4517 14.1914 15.4847 14.4224 15.5178 14.6534C15.6168 15.1155 15.8808 15.3135 16.3428 15.3465C16.7719 15.3795 17.2009 15.3465 17.597 15.1815C17.63 15.1815 17.663 15.1485 17.729 15.1485C17.795 15.0825 17.795 15.0825 17.828 15.0825Z" fill="#01479D"/>
<path d="M24.8906 9.30688C25.1216 9.20787 25.2867 9.10886 25.4847 9.04285C25.5837 9.00985 25.6497 9.04285 25.6827 9.10886C25.9137 9.33988 26.0457 9.63691 26.0787 9.96695C26.1117 10.099 26.1117 10.264 26.1117 10.396C26.1117 10.429 26.1448 10.462 26.1448 10.561C26.2108 10.495 26.2438 10.429 26.2768 10.396C26.5078 10.066 26.7718 9.73592 27.0358 9.4719C27.2999 9.24087 27.5639 9.07586 27.9269 9.04285C28.323 9.00985 28.686 9.14186 29.082 9.30688C29.016 9.5379 28.95 9.73592 28.917 9.96695C28.818 9.93394 28.752 9.90094 28.686 9.90094C28.488 9.86794 28.323 9.80193 28.1249 9.76893C27.7289 9.73592 27.3989 9.86794 27.1018 10.132C26.7388 10.429 26.4748 10.792 26.2108 11.1881C26.1448 11.2541 26.1448 11.3861 26.1448 11.4851C26.1448 12.8382 26.1448 14.1584 26.1448 15.5115C26.1448 15.9075 26.1778 15.8745 25.7817 15.8745C25.6827 15.8745 25.5507 15.8745 25.4517 15.8745C25.3857 15.8745 25.3197 15.8415 25.3197 15.7425C25.3197 15.6765 25.3197 15.6435 25.3197 15.5775C25.3197 14.0924 25.3197 12.5742 25.3197 11.0891C25.3197 10.825 25.3197 10.561 25.2867 10.297C25.2537 9.90094 25.1547 9.57091 24.8906 9.30688Z" fill="#01479D"/>
<path d="M49.3794 9.30692C49.6104 9.20791 49.7754 9.1089 49.9735 9.04289C50.0725 9.00989 50.1385 9.04289 50.2045 9.1089C50.4025 9.30692 50.5015 9.50494 50.5675 9.76896C50.6005 9.96698 50.6335 10.165 50.6665 10.363C50.6665 10.396 50.6995 10.462 50.6995 10.528C50.7655 10.462 50.7985 10.429 50.8315 10.363C51.0296 10.132 51.1946 9.86797 51.3926 9.63695C51.4586 9.53794 51.5576 9.43893 51.6566 9.37292C52.0527 9.00989 52.5147 8.91088 53.0428 9.04289C53.2408 9.1089 53.4388 9.1749 53.6698 9.24091C53.6038 9.47193 53.5378 9.70296 53.4718 9.93398C53.3728 9.90098 53.3068 9.86797 53.2408 9.86797C53.0428 9.83497 52.8777 9.76896 52.6797 9.73596C52.2837 9.70296 51.9537 9.83497 51.6896 10.066C51.3266 10.363 51.0296 10.7591 50.7655 11.1551C50.6995 11.2211 50.6995 11.3531 50.6995 11.4521C50.6995 12.8053 50.6995 14.1254 50.6995 15.4785C50.6995 15.5445 50.6995 15.5775 50.6995 15.6436C50.6995 15.8416 50.6995 15.8416 50.5015 15.8416C50.3365 15.8416 50.2045 15.8416 50.0395 15.8416C49.9074 15.8416 49.9074 15.8086 49.8744 15.6766C49.8744 15.6105 49.8744 15.5775 49.8744 15.5115C49.8744 13.9934 49.8744 12.5082 49.8744 10.9901C49.8744 10.7261 49.8414 10.495 49.8414 10.231C49.7424 9.90098 49.6764 9.60395 49.3794 9.30692Z" fill="#01479D"/>
<path d="M66.3431 12.4752C66.3431 13.4653 66.3431 14.4554 66.3431 15.4455C66.3431 15.4785 66.3431 15.5445 66.3431 15.5775C66.3431 15.8085 66.3431 15.8415 66.0791 15.8415C65.9471 15.8415 65.8151 15.8415 65.6831 15.8415C65.5511 15.8415 65.5181 15.8085 65.5181 15.6765C65.5181 15.6435 65.5181 15.5775 65.5181 15.5445C65.5181 13.5313 65.5181 11.5181 65.5181 9.50492C65.5181 9.20789 65.5181 9.20789 65.8481 9.20789C65.9471 9.20789 66.0791 9.20789 66.1781 9.20789C66.2771 9.20789 66.3431 9.24089 66.3431 9.3399C66.3431 9.40591 66.3431 9.47191 66.3431 9.53792C66.3431 10.495 66.3431 11.4851 66.3431 12.4752Z" fill="#01479D"/>
<path d="M65.9802 7.95376C65.6172 7.95376 65.3861 7.72274 65.4191 7.3597C65.4191 7.02967 65.6502 6.79865 66.0132 6.79865C66.3432 6.79865 66.5743 7.02967 66.5743 7.3927C66.5413 7.72274 66.3432 7.95376 65.9802 7.95376Z" fill="#01479D"/>
<path d="M80.4352 10.66C79.8742 10.66 79.4121 10.198 79.4121 9.63693C79.4121 9.07588 79.8742 8.61383 80.4352 8.61383C80.9963 8.61383 81.4583 9.07588 81.4583 9.63693C81.4583 10.198 80.9963 10.66 80.4352 10.66ZM80.4352 8.77885C79.9402 8.77885 79.5441 9.17489 79.5441 9.66994C79.5441 10.165 79.9402 10.561 80.4352 10.561C80.9303 10.561 81.3263 10.165 81.3263 9.66994C81.3263 9.17489 80.9303 8.77885 80.4352 8.77885Z" fill="#01479D"/>
<path d="M80.0396 9.04289C80.1386 9.00989 80.2706 9.00989 80.4026 9.00989C80.6006 9.00989 80.7326 9.04289 80.7986 9.1089C80.8646 9.1749 80.8976 9.24091 80.8976 9.33992C80.8976 9.50494 80.7656 9.63695 80.6336 9.66995C80.7326 9.70296 80.7986 9.80197 80.8316 9.93398C80.8646 10.099 80.8976 10.231 80.9306 10.297H80.7656C80.7326 10.264 80.6996 10.165 80.6666 9.99999C80.6336 9.83497 80.5346 9.76896 80.3696 9.73596H80.2046V10.297H80.0396V9.04289ZM80.2376 9.63695H80.4356C80.6336 9.63695 80.7656 9.53794 80.7656 9.40593C80.7656 9.24091 80.6336 9.1749 80.4356 9.1749C80.3366 9.1749 80.2706 9.1749 80.2706 9.1749V9.63695H80.2376Z" fill="#01479D"/>
</g>
<defs>
<clipPath id="clip0_849_136">
<rect width="80.5611" height="20" fill="white" transform="translate(0.897461)"/>
</clipPath>
</defs>
</svg>
